<svg width="35" height="35" viewBox="0 0 35 35" fill="none" xmlns="http://www.w3.org/2000/svg">
<path d="M15.7026 3.28125C20.079 5.67875 23.1357 9.45656 27.8709 12.0305C24.734 15.5553 22.8652 20.0061 19.5992 23.4201C15.4897 20.2577 11.049 18.3539 7.12903 15.1732C8.84767 10.667 12.9791 7.82104 15.7026 3.28125Z" stroke="black" stroke-width="1.25" stroke-linecap="round" stroke-linejoin="round"/>
<path d="M23.9656 17.4825L24.3258 25.9335C24.3666 27.4334 24.7013 27.7375 25.4574 27.9701C26.6394 28.3339 29.4701 30.1408 26.2872 30.3588C25.8432 30.3894 25.106 30.3588 25.106 30.3588C23.9831 30.213 22.2258 30.4339 22.3395 28.7751L22.2571 20.0863M13.7492 19.5773L13.6406 24.9783C13.6398 26.0815 13.3861 28.6642 15.753 29.152C16.8978 29.3876 18.9598 31.5525 15.5269 31.7165C14.6312 31.663 13.745 31.5026 12.8873 31.2389C11.5676 30.9305 11.7396 29.8761 11.7061 28.9253C11.9862 25.4109 11.9984 21.8803 11.7426 18.364M14.8226 12.0305C13.5086 12.1996 12.1618 12.6794 10.6488 14.7707C12.1195 16.4798 17.5759 16.1947 16.4821 13.2117C14.9771 15.8688 11.6317 14.1137 14.8226 12.0305ZM21.6104 10.2703C19.3901 10.6808 19.0802 12.4053 17.8391 13.4888C23.0257 14.312 24.9543 11.9751 23.5966 11.1256C21.4755 13.7418 18.9868 12.0042 21.6104 10.2703Z" stroke="black" stroke-width="1.25" stroke-linecap="round" stroke-linejoin="round"/>
</svg>
