<svg width="31" height="30" viewBox="0 0 31 30" fill="none" xmlns="http://www.w3.org/2000/svg">
<path d="M15.4272 23.75C15.9376 23.75 16.3692 23.5735 16.7222 23.2206C17.0751 22.8677 17.2511 22.4365 17.2501 21.927C17.2501 21.4166 17.0741 20.985 16.7222 20.632C16.3702 20.2791 15.9386 20.1032 15.4272 20.1041C14.9167 20.1041 14.4856 20.2806 14.1336 20.6335C13.7817 20.9864 13.6052 21.4176 13.6042 21.927C13.6042 22.4375 13.7807 22.8691 14.1336 23.222C14.4865 23.575 14.9177 23.7509 15.4272 23.75ZM14.1147 18.1354H16.8126C16.8126 17.3333 16.904 16.7013 17.0867 16.2395C17.2695 15.7777 17.7858 15.1458 18.6355 14.3437C19.2674 13.7118 19.7657 13.11 20.1303 12.5383C20.4949 11.9666 20.6772 11.2802 20.6772 10.4791C20.6772 9.11801 20.1789 8.07288 19.1824 7.34371C18.1858 6.61454 17.007 6.24996 15.6459 6.24996C14.2605 6.24996 13.1366 6.61454 12.2742 7.34371C11.4119 8.07288 10.8101 8.94788 10.4688 9.96871L12.8751 10.9166C12.9966 10.4791 13.2703 10.0052 13.6961 9.49475C14.122 8.98433 14.7719 8.72913 15.6459 8.72913C16.4237 8.72913 17.007 8.94204 17.3959 9.36788C17.7848 9.79371 17.9792 10.2613 17.9792 10.7708C17.9792 11.2569 17.8334 11.7129 17.5417 12.1387C17.2501 12.5645 16.8855 12.9593 16.448 13.3229C15.3786 14.2708 14.7223 14.9878 14.4792 15.4739C14.2362 15.96 14.1147 16.8472 14.1147 18.1354ZM15.5001 29.5833C13.4827 29.5833 11.5869 29.2007 9.81258 28.4356C8.03828 27.6704 6.49487 26.6311 5.18237 25.3177C3.86987 24.0052 2.83105 22.4618 2.06591 20.6875C1.30078 18.9132 0.91772 17.0173 0.916748 15C0.916748 12.9826 1.2998 11.0868 2.06591 9.31246C2.83203 7.53815 3.87085 5.99475 5.18237 4.68225C6.49487 3.36975 8.03828 2.33093 9.81258 1.56579C11.5869 0.800654 13.4827 0.417598 15.5001 0.416626C17.5174 0.416626 19.4133 0.799682 21.1876 1.56579C22.9619 2.3319 24.5053 3.37072 25.8178 4.68225C27.1303 5.99475 28.1696 7.53815 28.9357 9.31246C29.7018 11.0868 30.0844 12.9826 30.0834 15C30.0834 17.0173 29.7004 18.9132 28.9342 20.6875C28.1681 22.4618 27.1293 24.0052 25.8178 25.3177C24.5053 26.6302 22.9619 27.6695 21.1876 28.4356C19.4133 29.2017 17.5174 29.5843 15.5001 29.5833ZM15.5001 26.6666C18.757 26.6666 21.5157 25.5364 23.7761 23.276C26.0365 21.0156 27.1667 18.2569 27.1667 15C27.1667 11.743 26.0365 8.98433 23.7761 6.72392C21.5157 4.4635 18.757 3.33329 15.5001 3.33329C12.2431 3.33329 9.48446 4.4635 7.22404 6.72392C4.96362 8.98433 3.83341 11.743 3.83341 15C3.83341 18.2569 4.96362 21.0156 7.22404 23.276C9.48446 25.5364 12.2431 26.6666 15.5001 26.6666Z" fill="black"/>
</svg>
