<svg width="35" height="35" viewBox="0 0 35 35" fill="none" xmlns="http://www.w3.org/2000/svg">
<path d="M18.9991 2.91663C20.6397 2.921 21.4724 2.92975 22.1914 2.95017L22.4743 2.96038C22.801 2.97204 23.1233 2.98663 23.5127 3.00413C25.0643 3.07704 26.1231 3.32204 27.052 3.68225C28.0145 4.05267 28.8254 4.55433 29.6362 5.36371C30.3778 6.09272 30.9515 6.97457 31.3177 7.94788C31.6779 8.87683 31.9229 9.93558 31.9958 11.4887C32.0133 11.8766 32.0279 12.1989 32.0395 12.527L32.0483 12.81C32.0702 13.5275 32.0789 14.3602 32.0818 16.0008L32.0833 17.0887V18.9991C32.0869 20.0628 32.0757 21.1266 32.0497 22.19L32.041 22.4729C32.0293 22.801 32.0147 23.1233 31.9972 23.5112C31.9243 25.0643 31.6764 26.1216 31.3177 27.052C30.9526 28.0259 30.3787 28.9079 29.6362 29.6362C28.907 30.3775 28.0252 30.9513 27.052 31.3177C26.1231 31.6779 25.0643 31.9229 23.5127 31.9958C23.1666 32.0121 22.8205 32.0267 22.4743 32.0395L22.1914 32.0483C21.4724 32.0687 20.6397 32.0789 18.9991 32.0818L17.9112 32.0833H16.0022C14.938 32.087 13.8738 32.0758 12.8099 32.0497L12.527 32.041C12.1808 32.0279 11.8347 32.0128 11.4887 31.9958C9.93703 31.9229 8.87828 31.6779 7.94786 31.3177C6.97467 30.9522 6.09318 30.3783 5.36515 29.6362C4.62293 28.9075 4.04861 28.0256 3.68224 27.052C3.32203 26.1231 3.07703 25.0643 3.00411 23.5112C2.98787 23.1652 2.97328 22.8191 2.96036 22.4729L2.95307 22.19C2.9262 21.1266 2.91404 20.0629 2.91661 18.9991V16.0008C2.91254 14.9371 2.92324 13.8734 2.9487 12.81L2.9589 12.527C2.97057 12.1989 2.98515 11.8766 3.00265 11.4887C3.07557 9.93558 3.32057 8.87829 3.68078 7.94788C4.04699 6.97357 4.62246 6.09145 5.36661 5.36371C6.09446 4.62211 6.97536 4.04827 7.94786 3.68225C8.87828 3.32204 9.93557 3.07704 11.4887 3.00413C11.8766 2.98663 12.2004 2.97204 12.527 2.96038L12.8099 2.95163C13.8734 2.92572 14.9371 2.91453 16.0008 2.91808L18.9991 2.91663ZM17.4999 10.2083C15.5661 10.2083 13.7114 10.9765 12.344 12.344C10.9765 13.7114 10.2083 15.5661 10.2083 17.5C10.2083 19.4338 10.9765 21.2885 12.344 22.6559C13.7114 24.0234 15.5661 24.7916 17.4999 24.7916C19.4338 24.7916 21.2885 24.0234 22.6559 22.6559C24.0234 21.2885 24.7916 19.4338 24.7916 17.5C24.7916 15.5661 24.0234 13.7114 22.6559 12.344C21.2885 10.9765 19.4338 10.2083 17.4999 10.2083ZM17.4999 13.125C18.0745 13.1249 18.6434 13.2379 19.1742 13.4577C19.7051 13.6775 20.1874 13.9997 20.5938 14.4059C21.0001 14.812 21.3224 15.2943 21.5424 15.825C21.7623 16.3558 21.8756 16.9247 21.8757 17.4992C21.8758 18.0738 21.7627 18.6427 21.5429 19.1735C21.3232 19.7044 21.001 20.1867 20.5948 20.593C20.1886 20.9994 19.7064 21.3217 19.1756 21.5417C18.6448 21.7616 18.0759 21.8749 17.5014 21.875C16.3411 21.875 15.2283 21.414 14.4078 20.5936C13.5873 19.7731 13.1264 18.6603 13.1264 17.5C13.1264 16.3396 13.5873 15.2268 14.4078 14.4064C15.2283 13.5859 16.3411 13.125 17.5014 13.125M25.1577 8.02079C24.6742 8.02079 24.2105 8.21285 23.8687 8.55471C23.5268 8.89658 23.3347 9.36024 23.3347 9.84371C23.3347 10.3272 23.5268 10.7908 23.8687 11.1327C24.2105 11.4746 24.6742 11.6666 25.1577 11.6666C25.6411 11.6666 26.1048 11.4746 26.4467 11.1327C26.7885 10.7908 26.9806 10.3272 26.9806 9.84371C26.9806 9.36024 26.7885 8.89658 26.4467 8.55471C26.1048 8.21285 25.6411 8.02079 25.1577 8.02079Z" fill="black"/>
</svg>
