<svg width="31" height="30" viewBox="0 0 31 30" fill="none" xmlns="http://www.w3.org/2000/svg">
<path d="M28.6251 28.1251L22.2915 21.7915M22.2915 21.7915C23.3749 20.7081 24.2343 19.422 24.8206 18.0065C25.4069 16.591 25.7087 15.0739 25.7087 13.5417C25.7087 12.0096 25.4069 10.4925 24.8206 9.07697C24.2343 7.66147 23.3749 6.37531 22.2915 5.29193C21.2081 4.20855 19.922 3.34917 18.5065 2.76285C17.091 2.17653 15.5739 1.87476 14.0417 1.87476C12.5096 1.87476 10.9925 2.17653 9.57697 2.76285C8.16147 3.34917 6.87531 4.20855 5.79193 5.29193C3.60395 7.47991 2.37476 10.4475 2.37476 13.5417C2.37476 16.636 3.60395 19.6035 5.79193 21.7915C7.97991 23.9795 10.9475 25.2087 14.0417 25.2087C17.136 25.2087 20.1035 23.9795 22.2915 21.7915Z" stroke="black" stroke-width="3.75" stroke-linecap="round" stroke-linejoin="round"/>
</svg>
