<svg width="36" height="36" viewBox="0 0 36 36" fill="none" xmlns="http://www.w3.org/2000/svg">
<path d="M1.59375 18C1.59375 21.2266 2.52344 24.2344 4.10938 26.75H31.8359C33.4219 24.2344 34.3516 21.2266 34.3516 18C34.3516 14.7734 33.4219 11.7656 31.8359 9.25H4.10938C2.52344 11.7656 1.59375 14.7734 1.59375 18Z" fill="#FFCE31"/>
<path d="M31.8906 9.25C28.9922 4.65625 23.8516 1.59375 18 1.59375C12.1484 1.59375 7.00781 4.65625 4.10938 9.25H31.8906ZM4.10938 26.75C7.00781 31.3438 12.1484 34.4062 18 34.4062C23.8516 34.4062 28.9922 31.3438 31.8906 26.75H4.10938Z" fill="#ED4C5C"/>
<path d="M5.53125 16.1953H7.28125V17.1797H5.53125V16.1953ZM5.53125 23.4141H7.33594V24.3437H5.53125V23.4141Z" fill="#C8B100"/>
<path d="M5.36719 21.8828C5.20312 21.9922 5.09375 22.1016 5.09375 22.1562C5.09375 22.2109 5.14844 22.2656 5.25781 22.3203C5.36719 22.375 5.47656 22.4844 5.42188 22.5938C5.53125 22.4844 5.58594 22.375 5.58594 22.2656C5.58594 22.1016 5.47656 21.9375 5.36719 21.8828Z" fill="#ED4C5C"/>
<path d="M5.80469 17.1797H7.0625V23.4141H5.80469V17.1797Z" fill="white"/>
<path d="M8.37477 19.4766C8.10133 19.3672 7.60914 19.2578 7.06227 19.2578C6.89821 19.2578 6.67946 19.2578 6.46071 19.3125C5.69508 19.4219 5.09352 19.75 5.14821 19.9687L4.87477 19.3672C4.82008 19.0938 5.47633 18.7656 6.29664 18.6016C6.57008 18.5469 6.84352 18.5469 7.06227 18.5469C7.60914 18.5469 8.10133 18.6016 8.37477 18.7109V19.4766Z" fill="#ED4C5C"/>
<path d="M5.80469 20.2969C5.47656 20.2969 5.20312 20.1875 5.20312 20.0234C5.20312 19.9141 5.3125 19.75 5.53125 19.6406H5.85937L5.80469 20.2969ZM7.0625 19.8047C7.28125 19.8594 7.44531 19.9141 7.55469 19.9687C7.60937 20.0234 7.39062 20.2422 7.0625 20.4063V19.8047Z" fill="#ED4C5C"/>
<path d="M4.98421 21.5C4.92953 21.3906 5.31234 21.1719 5.80453 21.0078C6.02328 20.9531 6.18734 20.8438 6.46078 20.7344C7.11703 20.4609 7.6639 20.0781 7.55453 19.9688L7.6639 20.625C7.71859 20.7344 7.28109 21.0625 6.62484 21.3906C6.40609 21.5 6.02328 21.6641 5.80453 21.7188C5.42171 21.8281 5.09359 22.0469 5.09359 22.1016L4.98421 21.5Z" fill="#ED4C5C"/>
<path d="M17.2891 16.1953H19.0391V17.1797H17.2891V16.1953ZM17.2344 23.4141H19.0391V24.3437H17.2344V23.4141Z" fill="#C8B100"/>
<path d="M19.2031 21.8828C19.3672 21.9922 19.4766 22.1016 19.4766 22.1562C19.4766 22.2109 19.4219 22.2656 19.3125 22.3203C19.2031 22.4297 19.0937 22.5938 19.1484 22.6484C19.0391 22.5391 18.9844 22.4297 18.9844 22.3203C18.9844 22.1016 19.0938 21.9375 19.2031 21.8828Z" fill="#ED4C5C"/>
<path d="M17.5078 17.1797H18.7656V23.4141H17.5078V17.1797Z" fill="white"/>
<path d="M16.1953 19.4766C16.4688 19.3672 16.9609 19.2578 17.5078 19.2578C17.6719 19.2578 17.8906 19.2578 18.1094 19.3125C18.875 19.4219 19.4766 19.75 19.4219 19.9687L19.6953 19.3125C19.75 19.0391 19.0937 18.7109 18.2734 18.5469H17.5078C16.9609 18.5469 16.4688 18.6016 16.1953 18.7109V19.4766Z" fill="#ED4C5C"/>
<path d="M18.7657 20.2969C19.0938 20.2969 19.3673 20.1875 19.3673 20.0234C19.3673 19.9141 19.2579 19.75 19.0391 19.6406H18.711L18.7657 20.2969ZM17.5079 19.8047C17.2891 19.8594 17.1251 19.9141 17.0157 19.9687C16.961 20.0234 17.1798 20.2422 17.5079 20.4063V19.8047Z" fill="#ED4C5C"/>
<path d="M19.5859 21.5C19.6406 21.3906 19.2578 21.1719 18.7656 21.0078C18.5469 20.9531 18.3828 20.8438 18.1094 20.7344C17.4531 20.4609 16.9062 20.0781 17.0156 19.9687L16.9062 20.625C16.8516 20.7344 17.2891 21.0625 17.9453 21.3906C18.1641 21.5 18.5469 21.6641 18.7656 21.7188C19.1484 21.8281 19.4766 22.1016 19.4219 22.1562L19.5859 21.5ZM12.2578 12.6953C13.2969 12.6953 15.4297 12.9141 16.1953 13.6797C15.375 15.6484 14.0625 14.8281 12.2578 14.8281C10.5078 14.8281 9.14062 15.6484 8.32031 13.6797C9.08594 12.9141 11.1641 12.6953 12.2578 12.6953Z" fill="#ED4C5C"/>
<path d="M14.9375 14.8828C14.2812 14.5 13.2969 14.4453 12.2578 14.4453C11.2188 14.4453 10.2344 14.5547 9.57813 14.8828L9.79688 15.8125C10.3984 15.9766 11.2734 16.0859 12.2578 16.0859C13.2422 16.0859 14.0625 15.9766 14.7188 15.8125L14.9375 14.8828ZM15.8672 12.5312C15.6484 12.3672 15.2109 12.2031 14.8281 12.2031C14.6641 12.2031 14.5 12.2031 14.3359 12.2578C14.3359 12.2578 14.0078 11.8203 13.2422 11.8203C12.9688 11.8203 12.75 11.875 12.5313 11.9844V11.9297C12.4766 11.8203 12.3672 11.7109 12.2578 11.7109C12.1484 11.7109 11.9844 11.875 11.9844 11.9844V12.0391C11.7656 11.9297 11.5469 11.875 11.2734 11.875C10.5078 11.875 10.1797 12.3672 10.1797 12.3125C10.0156 12.2578 9.85156 12.2578 9.6875 12.2578C7.17187 12.2578 8.42969 13.9531 8.42969 13.9531L8.70313 13.625C8.10156 12.8594 8.64844 12.4219 9.74219 12.4219C9.90625 12.4219 10.0156 12.4219 10.125 12.4766C9.74219 13.0234 10.4531 13.5156 10.4531 13.5156L10.6172 13.2422C10.2344 12.9687 10.1797 12.0391 11.2734 12.0391C11.5469 12.0391 11.7656 12.0938 11.9844 12.2578C11.9844 12.3125 11.9297 13.0781 11.875 13.1875L12.3125 13.5703L12.75 13.1875C12.6953 13.0234 12.6406 12.3125 12.6406 12.2578C12.8047 12.1484 13.0781 12.0391 13.3516 12.0391C14.5 12.0391 14.5 12.9687 14.0078 13.2422L14.1719 13.5156C14.1719 13.5156 14.7734 13.0234 14.5 12.4766C14.6094 12.4766 14.7734 12.4219 14.8828 12.4219C16.1953 12.4219 16.25 13.4062 15.9219 13.625L16.1406 13.9531C16.0313 13.9531 16.6328 13.1875 15.8672 12.5312Z" fill="#C8B100"/>
<path d="M11.9297 11.4922C11.9297 11.3281 12.0938 11.1641 12.2578 11.1641C12.4766 11.1641 12.5859 11.3281 12.5859 11.4922C12.5859 11.6563 12.4219 11.8203 12.2578 11.8203C12.0938 11.8203 11.9297 11.6563 11.9297 11.4922Z" fill="#005BBF"/>
<path d="M12.1484 10.5625V10.7266H11.9844V10.8906H12.1484V11.4375H11.9297V11.6016H12.5859L12.6406 11.4922L12.5859 11.4375H12.3672V10.8906H12.5313V10.7266H12.3672V10.5625H12.1484Z" fill="#C8B100"/>
<path d="M12.2578 15.9766C11.3828 15.9766 10.6172 15.8672 10.0156 15.7031C10.6172 15.5391 11.3828 15.4297 12.2578 15.4297C13.1328 15.4297 13.8984 15.5391 14.5 15.7031C13.9531 15.8672 13.1328 15.9766 12.2578 15.9766Z" fill="#ED4C5C"/>
<path d="M12.3125 25.4375C11.2734 25.4375 10.2891 25.1641 9.41406 24.7813C8.75781 24.4531 8.375 23.8516 8.375 23.1406V20.5156H16.25V23.1406C16.25 23.8516 15.8125 24.5078 15.2109 24.7813C14.3359 25.2188 13.3516 25.4375 12.3125 25.4375ZM12.2578 16.1406H16.1953V20.5156H12.2578V16.1406Z" fill="white"/>
<path d="M12.3125 23.1406C12.3125 24.1797 11.4375 25 10.3438 25C9.25 25 8.375 24.1797 8.375 23.1406V20.5156H12.3125V23.1406Z" fill="#ED4C5C"/>
<path d="M9.19531 24.6719C9.30469 24.7266 9.46875 24.8359 9.6875 24.8906V20.4062H9.25L9.19531 24.6719ZM8.32031 23.0859C8.32031 23.6328 8.53906 24.0703 8.75781 24.2891V20.4062H8.32031V23.0859Z" fill="#C8B100"/>
<path d="M10.0703 25H10.5078V20.4062H10.0703V25Z" fill="#C7B500"/>
<path d="M10.9453 24.8906C11.1094 24.8359 11.3281 24.7266 11.4375 24.6719V20.4062H11L10.9453 24.8906Z" fill="#C8B100"/>
<path d="M8.32031 16.1406H12.2578V20.5156H8.32031V16.1406Z" fill="#ED4C5C"/>
<path d="M11.875 24.2891C12.0938 24.125 12.2578 23.7422 12.3125 23.3047V20.4609H11.875V24.2891Z" fill="#C8B100"/>
<path d="M16.25 20.5155V23.1406C16.25 24.1796 15.375 24.9999 14.2813 24.9999C13.1875 24.9999 12.3125 24.1796 12.3125 23.1406V20.5155H16.25ZM14.8281 16.9062C14.9922 17.2343 14.9922 18.0546 14.5 17.8906C14.6094 17.9452 14.6641 18.3281 14.8281 18.5468C15.1016 18.8749 15.4297 18.6015 15.375 18.2187C15.2656 17.6171 15.3203 17.2343 15.4297 16.6327C15.4297 16.6874 15.7031 16.6874 15.8125 16.5781C15.7578 16.7421 15.7031 16.9609 15.8125 16.9609C15.7031 17.1249 15.4297 17.3984 15.375 17.5624C15.3203 17.9452 15.9219 18.6562 15.2656 18.8202C14.8281 18.9296 15.1016 19.2577 15.2656 19.4218C15.2656 19.4218 15.0469 20.1327 15.1562 20.0781C14.7187 20.2421 14.8281 19.8593 14.8281 19.8593C15.0469 19.2031 14.4453 19.1484 14.5 19.039C13.9531 18.9843 14.5547 19.5312 14.0625 19.5312C13.9531 19.5312 13.7344 19.6406 13.7344 19.6406C13.1328 19.5859 13.4609 19.039 13.6797 19.0937C13.8438 19.1484 14.0078 19.4218 14.0078 19.039C14.0078 19.039 13.7344 18.6015 14.4453 18.6015C14.1719 18.6015 14.0078 18.3827 13.8984 18.1093C13.7891 18.164 13.625 18.4374 13.0234 18.4921C13.0234 18.4921 12.8594 17.8906 13.0234 17.9999C13.2422 18.1093 13.3516 18.1093 13.5703 17.8906C13.4609 17.7265 12.8047 17.5077 12.9141 17.1249C12.9141 17.0156 13.2422 16.8515 13.2422 16.8515C13.1875 17.1249 13.3516 17.3984 13.6797 17.3984C14.1172 17.4531 13.9531 17.289 14.0078 17.1796C14.0625 17.0702 14.3906 17.2343 14.2813 16.9609C14.2813 16.9062 13.8984 16.8515 14.0078 16.6874C14.2266 16.414 14.5547 16.6327 14.8281 16.9062ZM12.3125 24.8905L12.2031 24.6171L12.3125 24.289L12.4219 24.6171L12.3125 24.8905Z" fill="#ED4C5C"/>
<path d="M9.52344 17.0703V17.3437H9.63281V17.5625H9.35938V18.1094H9.52344V19.3125H9.19531V19.9141H11.4375V19.3125H11.1641V18.1094H11.2734V17.5625H11V17.3437H11.1641V17.0703H10.6172V17.3437H10.7266V17.5625H10.4531V16.9062H10.6172V16.6328H10.0156V16.9062H10.1797V17.5625H9.90625V17.3437H10.0156V17.0703H9.52344ZM15.7031 23.7969V21.0625H12.8594V23.7969L14.1719 24.3984H14.3359L15.7031 23.7969ZM14.1719 21.2812V22.2109L13.2422 21.2812H14.1719ZM13.0234 21.3359L14.1172 22.4297L13.0234 23.5234V21.3359ZM13.1328 23.7422L14.1719 22.7031V24.2344L13.1328 23.7422ZM14.3359 24.1797V22.6484L15.375 23.6875L14.3359 24.1797ZM15.4844 23.5234L14.3906 22.4297L15.4844 21.3359V23.5234ZM14.3359 21.2812H15.2656L14.3359 22.2109V21.2812Z" fill="#C8B100"/>
<path d="M11 20.4609C11 19.6406 11.5469 19.0391 12.2578 19.0391C12.9687 19.0391 13.5156 19.6953 13.5156 20.4609C13.5156 21.2266 12.9687 21.8828 12.2578 21.8828C11.5469 21.8828 11 21.2812 11 20.4609Z" fill="#ED4C5C"/>
<path d="M11.3828 20.4609C11.3828 19.8594 11.7656 19.4219 12.2578 19.4219C12.75 19.4219 13.1328 19.9141 13.1328 20.4609C13.1328 21.0625 12.75 21.5 12.2578 21.5C11.8203 21.5547 11.3828 21.0625 11.3828 20.4609Z" fill="#005BBF"/>
<path d="M11.875 19.75L11.6562 20.3516L11.8203 20.4063L11.7109 20.625H12.0391L11.9297 20.4063L12.0938 20.3516L11.875 19.75ZM12.6953 19.75L12.4766 20.3516L12.6406 20.4063L12.5313 20.625H12.8594L12.8047 20.4063L12.9687 20.3516L12.6953 19.75ZM12.3125 20.4609L12.0391 21.0625L12.2031 21.1172L12.1484 21.3359H12.4219L12.3672 21.1172L12.5313 21.0625L12.3125 20.4609Z" fill="#C8B100"/>
</svg>
